<svg width="113" height="33" viewBox="0 0 113 33" fill="none" xmlns="http://www.w3.org/2000/svg">
<path d="M8.676 16.8179L6.12 12.2999H3.348V16.8179H1.35V4.21787H6.354C7.086 4.21787 7.758 4.39787 8.37 4.75787C8.994 5.11787 9.486 5.60987 9.846 6.23387C10.218 6.84587 10.404 7.51787 10.404 8.24987C10.404 9.02987 10.2 9.74387 9.792 10.3919C9.384 11.0399 8.844 11.5319 8.172 11.8679L10.962 16.8179H8.676ZM3.348 6.12587V10.3919H6.354C6.942 10.3919 7.446 10.1819 7.866 9.76187C8.286 9.34187 8.496 8.83787 8.496 8.24987C8.496 7.66187 8.286 7.16387 7.866 6.75587C7.446 6.33587 6.942 6.12587 6.354 6.12587H3.348ZM16.0875 7.58387C16.9635 7.58387 17.7435 7.79987 18.4275 8.23187C19.1115 8.65187 19.6455 9.22787 20.0295 9.95987C20.4135 10.6799 20.6055 11.4719 20.6055 12.3359C20.6055 12.4799 20.5815 12.7079 20.5335 13.0199H13.2615C13.4175 13.7399 13.7535 14.3159 14.2695 14.7479C14.7975 15.1799 15.4635 15.3959 16.2675 15.3959C16.7595 15.3959 17.2275 15.2879 17.6715 15.0719C18.1275 14.8559 18.4635 14.5739 18.6795 14.2259L20.1555 15.0899C19.7475 15.7139 19.2075 16.1999 18.5355 16.5479C17.8635 16.8839 17.0955 17.0519 16.2315 17.0519C15.2715 17.0519 14.4195 16.8479 13.6755 16.4399C12.9435 16.0319 12.3735 15.4679 11.9655 14.7479C11.5695 14.0279 11.3715 13.2179 11.3715 12.3179C11.3715 11.4299 11.5695 10.6259 11.9655 9.90587C12.3735 9.18587 12.9315 8.62187 13.6395 8.21387C14.3595 7.79387 15.1755 7.58387 16.0875 7.58387ZM18.8055 11.5259C18.7095 10.8179 18.4155 10.2599 17.9235 9.85187C17.4435 9.44387 16.8315 9.23987 16.0875 9.23987C15.5715 9.23987 15.0975 9.34787 14.6655 9.56387C14.2335 9.76787 13.8915 10.0499 13.6395 10.4099C13.3875 10.7579 13.2555 11.1299 13.2435 11.5259H18.8055ZM29.3248 7.81787H31.2148V16.8179H29.3248V15.7199C28.9048 16.1399 28.4188 16.4699 27.8668 16.7099C27.3268 16.9379 26.7628 17.0519 26.1748 17.0519C25.2748 17.0519 24.4828 16.8479 23.7988 16.4399C23.1148 16.0199 22.5808 15.4559 22.1968 14.7479C21.8248 14.0279 21.6388 13.2239 21.6388 12.3359C21.6388 11.4479 21.8248 10.6439 22.1968 9.92387C22.5808 9.20387 23.1148 8.63987 23.7988 8.23187C24.4828 7.81187 25.2748 7.60187 26.1748 7.60187C26.7628 7.60187 27.3268 7.72187 27.8668 7.96187C28.4188 8.18987 28.9048 8.51387 29.3248 8.93387V7.81787ZM26.3908 15.2339C26.9308 15.2339 27.4228 15.1079 27.8668 14.8559C28.3228 14.6039 28.6768 14.2559 28.9288 13.8119C29.1928 13.3679 29.3248 12.8699 29.3248 12.3179C29.3248 11.7659 29.1928 11.2739 28.9288 10.8419C28.6768 10.3979 28.3228 10.0559 27.8668 9.81587C27.4228 9.56387 26.9308 9.43787 26.3908 9.43787C25.8508 9.43787 25.3588 9.56387 24.9148 9.81587C24.4828 10.0559 24.1408 10.3979 23.8888 10.8419C23.6488 11.2859 23.5288 11.7839 23.5288 12.3359C23.5288 12.8879 23.6488 13.3859 23.8888 13.8299C24.1408 14.2739 24.4828 14.6219 24.9148 14.8739C25.3588 15.1139 25.8508 15.2339 26.3908 15.2339ZM40.5221 4.21787H42.4121V16.8179H40.5221V15.7199C40.1021 16.1399 39.6161 16.4699 39.0641 16.7099C38.5241 16.9379 37.9601 17.0519 37.3721 17.0519C36.4721 17.0519 35.6801 16.8479 34.9961 16.4399C34.3121 16.0199 33.7781 15.4559 33.3941 14.7479C33.0221 14.0279 32.8361 13.2239 32.8361 12.3359C32.8361 11.4479 33.0221 10.6439 33.3941 9.92387C33.7781 9.20387 34.3121 8.63987 34.9961 8.23187C35.6801 7.81187 36.4721 7.60187 37.3721 7.60187C37.9601 7.60187 38.5241 7.72187 39.0641 7.96187C39.6161 8.18987 40.1021 8.51387 40.5221 8.93387V4.21787ZM37.5881 15.2339C38.1281 15.2339 38.6201 15.1079 39.0641 14.8559C39.5201 14.6039 39.8741 14.2559 40.1261 13.8119C40.3901 13.3679 40.5221 12.8699 40.5221 12.3179C40.5221 11.7659 40.3901 11.2739 40.1261 10.8419C39.8741 10.3979 39.5201 10.0559 39.0641 9.81587C38.6201 9.56387 38.1281 9.43787 37.5881 9.43787C37.0481 9.43787 36.5561 9.56387 36.1121 9.81587C35.6801 10.0559 35.3381 10.3979 35.0861 10.8419C34.8461 11.2859 34.7261 11.7839 34.7261 12.3359C34.7261 12.8879 34.8461 13.3859 35.0861 13.8299C35.3381 14.2739 35.6801 14.6219 36.1121 14.8739C36.5561 15.1139 37.0481 15.2339 37.5881 15.2339ZM59.8084 7.58387C60.3364 7.58387 60.8704 7.69787 61.4104 7.92587C61.9624 8.14187 62.4364 8.53787 62.8324 9.11387C63.2284 9.68987 63.4264 10.4639 63.4264 11.4359V16.8179H61.5364V11.4359C61.5364 10.6679 61.3204 10.1159 60.8884 9.77987C60.4564 9.43187 59.9524 9.25787 59.3764 9.25787C58.9084 9.25787 58.4824 9.40187 58.0984 9.68987C57.7264 9.96587 57.4804 10.4219 57.3604 11.0579C57.3724 11.1299 57.3784 11.2559 57.3784 11.4359V16.8179H55.4884V11.4359C55.4884 10.6559 55.2724 10.0979 54.8404 9.76187C54.4204 9.42587 53.9224 9.25787 53.3464 9.25787C52.9024 9.25787 52.4884 9.38987 52.1044 9.65387C51.7324 9.91787 51.4804 10.3379 51.3484 10.9139V16.8179H49.4584V7.81787H51.3484V8.62787C51.6724 8.30387 52.0384 8.05187 52.4464 7.87187C52.8544 7.67987 53.2924 7.58387 53.7604 7.58387C54.3364 7.58387 54.9124 7.71587 55.4884 7.97987C56.0764 8.23187 56.5384 8.65787 56.8744 9.25787C57.1744 8.78987 57.5824 8.39387 58.0984 8.06987C58.6264 7.74587 59.1964 7.58387 59.8084 7.58387ZM69.4898 17.0519C68.6378 17.0519 67.8458 16.8419 67.1138 16.4219C66.3938 15.9899 65.8238 15.4139 65.4038 14.6939C64.9838 13.9619 64.7738 13.1699 64.7738 12.3179C64.7738 11.4659 64.9838 10.6799 65.4038 9.95987C65.8238 9.23987 66.3938 8.66987 67.1138 8.24987C67.8458 7.81787 68.6378 7.60187 69.4898 7.60187C70.3418 7.60187 71.1278 7.81787 71.8478 8.24987C72.5798 8.66987 73.1558 9.23987 73.5758 9.95987C73.9958 10.6799 74.2058 11.4659 74.2058 12.3179C74.2058 13.1699 73.9958 13.9619 73.5758 14.6939C73.1558 15.4139 72.5798 15.9899 71.8478 16.4219C71.1278 16.8419 70.3418 17.0519 69.4898 17.0519ZM69.4898 15.1619C70.0058 15.1619 70.4798 15.0359 70.9118 14.7839C71.3438 14.5199 71.6858 14.1719 71.9378 13.7399C72.1898 13.3079 72.3158 12.8339 72.3158 12.3179C72.3158 11.8019 72.1898 11.3279 71.9378 10.8959C71.6858 10.4639 71.3438 10.1219 70.9118 9.86987C70.4798 9.61787 70.0058 9.49187 69.4898 9.49187C68.9738 9.49187 68.4998 9.61787 68.0678 9.86987C67.6358 10.1219 67.2878 10.4639 67.0238 10.8959C66.7718 11.3279 66.6458 11.8019 66.6458 12.3179C66.6458 12.8339 66.7718 13.3079 67.0238 13.7399C67.2878 14.1719 67.6358 14.5199 68.0678 14.7839C68.4998 15.0359 68.9738 15.1619 69.4898 15.1619ZM80.4893 7.61987C80.6213 7.61987 80.7233 7.62587 80.7953 7.63787L80.6513 9.43787C80.5193 9.40187 80.3933 9.38387 80.2733 9.38387C79.5293 9.38387 78.9053 9.61187 78.4013 10.0679C77.8973 10.5119 77.6453 11.1419 77.6453 11.9579V16.8179H75.7553V7.81787H77.6453V9.34787C77.8493 8.86787 78.1973 8.45987 78.6893 8.12387C79.1933 7.78787 79.7933 7.61987 80.4893 7.61987ZM86.0133 7.58387C86.8893 7.58387 87.6693 7.79987 88.3533 8.23187C89.0373 8.65187 89.5713 9.22787 89.9553 9.95987C90.3393 10.6799 90.5313 11.4719 90.5313 12.3359C90.5313 12.4799 90.5073 12.7079 90.4593 13.0199H83.1873C83.3433 13.7399 83.6793 14.3159 84.1953 14.7479C84.7233 15.1799 85.3893 15.3959 86.1933 15.3959C86.6853 15.3959 87.1533 15.2879 87.5973 15.0719C88.0533 14.8559 88.3893 14.5739 88.6053 14.2259L90.0813 15.0899C89.6733 15.7139 89.1333 16.1999 88.4613 16.5479C87.7893 16.8839 87.0213 17.0519 86.1573 17.0519C85.1973 17.0519 84.3453 16.8479 83.6013 16.4399C82.8693 16.0319 82.2993 15.4679 81.8913 14.7479C81.4953 14.0279 81.2973 13.2179 81.2973 12.3179C81.2973 11.4299 81.4953 10.6259 81.8913 9.90587C82.2993 9.18587 82.8573 8.62187 83.5653 8.21387C84.2853 7.79387 85.1013 7.58387 86.0133 7.58387ZM88.7313 11.5259C88.6353 10.8179 88.3413 10.2599 87.8493 9.85187C87.3693 9.44387 86.7573 9.23987 86.0133 9.23987C85.4973 9.23987 85.0233 9.34787 84.5913 9.56387C84.1593 9.76787 83.8173 10.0499 83.5653 10.4099C83.3133 10.7579 83.1813 11.1299 83.1693 11.5259H88.7313Z" fill="#333333"/>
<path d="M104 3.77971L110.706 10.4863C110.75 10.5298 110.784 10.5815 110.808 10.6384C110.831 10.6953 110.843 10.7562 110.843 10.8178C110.843 10.8794 110.831 10.9404 110.808 10.9973C110.784 11.0542 110.75 11.1059 110.706 11.1494L104 17.856" stroke="#333333" stroke-width="2.5" stroke-linecap="round" stroke-linejoin="round"/>
<line y1="31.8179" x2="110.843" y2="31.8179" stroke="#0099FF" stroke-width="2"/>
</svg>
